%
M48
M72
T01C0.02400
T02C0.04000
T03C0.13000
%
T01
X553333Y186000
X575833Y176000
X625833Y171000
X635833Y173500
X650833Y173500
X640833Y161000
X670833Y141000
X658333Y136000
X630833Y126000
X608333Y136000
X668333Y121000
X690833Y121000
X695833Y131000
X668333Y111000
X710833Y86000
X730833Y106000
X670833Y66000
X655833Y66000
X640833Y61000
X620833Y48500
X603333Y93500
X585833Y91000
X580833Y91000
X700833Y156000
X655833Y191000
X693333Y211000
X670833Y221000
X685833Y231000
X768333Y231000
X565833Y241000
X550833Y251000
X558333Y201000
T02
X513333Y196000
X503333Y196000
X503333Y186000
X513333Y186000
X513333Y176000
X503333Y176000
X503333Y166000
X513333Y166000
X513333Y156000
X503333Y156000
X503333Y146000
X513333Y146000
X513333Y136000
X503333Y136000
X503333Y126000
X513333Y126000
X513333Y116000
X503333Y116000
X503333Y106000
X513333Y106000
X513333Y96000
X503333Y96000
X503333Y86000
X513333Y86000
X513333Y76000
X503333Y76000
X503333Y66000
X513333Y66000
X513333Y56000
X503333Y56000
X753333Y56000
X763333Y56000
X763333Y66000
X753333Y66000
X753333Y76000
X763333Y76000
X763333Y86000
X753333Y86000
X753333Y96000
X763333Y96000
X763333Y106000
X753333Y106000
X753333Y116000
X763333Y116000
X763333Y126000
X753333Y126000
X753333Y136000
X763333Y136000
X763333Y146000
X753333Y146000
X753333Y156000
X763333Y156000
X763333Y166000
X753333Y166000
X753333Y176000
X763333Y176000
X763333Y186000
X753333Y186000
X753333Y196000
X763333Y196000
X763333Y206000
X753333Y206000
X753333Y216000
X763333Y216000
X763333Y226000
X753333Y226000
X753333Y236000
X763333Y236000
X763333Y246000
X753333Y246000
X513333Y246000
X503333Y246000
X503333Y236000
X513333Y236000
X513333Y226000
X503333Y226000
X503333Y216000
X513333Y216000
X513333Y206000
X503333Y206000
T03
X498333Y16000
X768333Y16000
X768333Y286000
X498333Y286000
M30
