G75*
%MOIN*%
%OFA0B0*%
%FSLAX25Y25*%
%IPPOS*%
%LPD*%
%AMOC8*
5,1,8,0,0,1.08239X$1,22.5*
%
%ADD10C,0.07400*%
%ADD11C,0.01000*%
%ADD12C,0.04000*%
D10*
X0503333Y0056000D03*
X0513333Y0056000D03*
X0513333Y0066000D03*
X0503333Y0066000D03*
X0503333Y0076000D03*
X0513333Y0076000D03*
X0513333Y0086000D03*
X0503333Y0086000D03*
X0503333Y0096000D03*
X0513333Y0096000D03*
X0513333Y0106000D03*
X0503333Y0106000D03*
X0503333Y0116000D03*
X0513333Y0116000D03*
X0513333Y0126000D03*
X0503333Y0126000D03*
X0503333Y0136000D03*
X0513333Y0136000D03*
X0513333Y0146000D03*
X0503333Y0146000D03*
X0503333Y0156000D03*
X0513333Y0156000D03*
X0513333Y0166000D03*
X0503333Y0166000D03*
X0503333Y0176000D03*
X0513333Y0176000D03*
X0513333Y0186000D03*
X0503333Y0186000D03*
X0503333Y0196000D03*
X0513333Y0196000D03*
X0513333Y0206000D03*
X0503333Y0206000D03*
X0503333Y0216000D03*
X0513333Y0216000D03*
X0513333Y0226000D03*
X0503333Y0226000D03*
X0503333Y0236000D03*
X0513333Y0236000D03*
X0513333Y0246000D03*
X0503333Y0246000D03*
X0753333Y0246000D03*
X0763333Y0246000D03*
X0763333Y0236000D03*
X0753333Y0236000D03*
X0753333Y0226000D03*
X0763333Y0226000D03*
X0763333Y0216000D03*
X0753333Y0216000D03*
X0753333Y0206000D03*
X0763333Y0206000D03*
X0763333Y0196000D03*
X0753333Y0196000D03*
X0753333Y0186000D03*
X0763333Y0186000D03*
X0763333Y0176000D03*
X0753333Y0176000D03*
X0753333Y0166000D03*
X0763333Y0166000D03*
X0763333Y0156000D03*
X0753333Y0156000D03*
X0753333Y0146000D03*
X0763333Y0146000D03*
X0763333Y0136000D03*
X0753333Y0136000D03*
X0753333Y0126000D03*
X0763333Y0126000D03*
X0763333Y0116000D03*
X0753333Y0116000D03*
X0753333Y0106000D03*
X0763333Y0106000D03*
X0763333Y0096000D03*
X0753333Y0096000D03*
X0753333Y0086000D03*
X0763333Y0086000D03*
X0763333Y0076000D03*
X0753333Y0076000D03*
X0753333Y0066000D03*
X0763333Y0066000D03*
X0763333Y0056000D03*
X0753333Y0056000D03*
D11*
X0495833Y0056000D02*
X0495833Y0231000D01*
X0680833Y0231000D01*
X0685833Y0236000D01*
X0753333Y0236000D01*
X0758333Y0241000D02*
X0763333Y0236000D01*
X0758333Y0241000D02*
X0565833Y0241000D01*
X0555833Y0246000D02*
X0753333Y0246000D01*
X0763333Y0246000D02*
X0768333Y0246000D01*
X0768333Y0231000D01*
X0763333Y0226000D02*
X0758333Y0231000D01*
X0685833Y0231000D01*
X0670833Y0226000D02*
X0753333Y0226000D01*
X0753333Y0216000D02*
X0698333Y0216000D01*
X0693333Y0211000D01*
X0685833Y0206000D02*
X0753333Y0206000D01*
X0758333Y0201000D02*
X0763333Y0196000D01*
X0758333Y0191000D02*
X0763333Y0186000D01*
X0753333Y0186000D02*
X0648333Y0186000D01*
X0635833Y0173500D01*
X0628333Y0168500D02*
X0625833Y0171000D01*
X0628333Y0168500D02*
X0748333Y0168500D01*
X0750833Y0171000D01*
X0758333Y0171000D01*
X0763333Y0166000D01*
X0758333Y0161000D02*
X0763333Y0156000D01*
X0758333Y0151000D02*
X0763333Y0146000D01*
X0753333Y0146000D02*
X0668333Y0146000D01*
X0658333Y0136000D01*
X0660833Y0133500D02*
X0693333Y0133500D01*
X0695833Y0136000D01*
X0753333Y0136000D01*
X0758333Y0131000D02*
X0763333Y0136000D01*
X0768333Y0138500D02*
X0765833Y0141000D01*
X0670833Y0141000D01*
X0660833Y0133500D02*
X0660833Y0118500D01*
X0668333Y0111000D01*
X0673333Y0111000D02*
X0673333Y0106000D01*
X0578333Y0106000D01*
X0608333Y0136000D01*
X0630833Y0126000D02*
X0655833Y0151000D01*
X0758333Y0151000D01*
X0753333Y0156000D02*
X0700833Y0156000D01*
X0653333Y0176000D02*
X0650833Y0173500D01*
X0653333Y0176000D02*
X0753333Y0176000D01*
X0763333Y0176000D02*
X0770833Y0176000D01*
X0770833Y0056000D01*
X0765833Y0051000D01*
X0623333Y0051000D01*
X0620833Y0048500D01*
X0640833Y0061000D02*
X0758333Y0061000D01*
X0763333Y0066000D01*
X0758333Y0071000D02*
X0763333Y0076000D01*
X0758333Y0081000D02*
X0575833Y0081000D01*
X0585833Y0091000D01*
X0580833Y0091000D02*
X0570833Y0081000D01*
X0508333Y0081000D01*
X0503333Y0076000D01*
X0508333Y0071000D01*
X0515833Y0071000D01*
X0530833Y0056000D01*
X0753333Y0056000D01*
X0758333Y0071000D02*
X0675833Y0071000D01*
X0670833Y0066000D01*
X0665833Y0076000D02*
X0655833Y0066000D01*
X0665833Y0076000D02*
X0753333Y0076000D01*
X0758333Y0081000D02*
X0763333Y0086000D01*
X0753333Y0086000D02*
X0710833Y0086000D01*
X0758333Y0101000D02*
X0620833Y0101000D01*
X0613333Y0093500D01*
X0603333Y0093500D01*
X0600833Y0096000D01*
X0520833Y0096000D01*
X0515833Y0091000D01*
X0508333Y0091000D01*
X0503333Y0086000D01*
X0503333Y0096000D02*
X0508333Y0101000D01*
X0568333Y0101000D01*
X0628333Y0161000D01*
X0640833Y0161000D01*
X0758333Y0161000D01*
X0753333Y0166000D02*
X0585833Y0166000D01*
X0575833Y0176000D01*
X0563333Y0196000D02*
X0553333Y0186000D01*
X0563333Y0196000D02*
X0753333Y0196000D01*
X0758333Y0191000D02*
X0655833Y0191000D01*
X0640833Y0191000D01*
X0630833Y0181000D01*
X0508333Y0181000D01*
X0508333Y0111000D01*
X0503333Y0106000D01*
X0513333Y0096000D02*
X0515833Y0098500D01*
X0570833Y0098500D01*
X0578333Y0106000D01*
X0575833Y0081000D02*
X0570833Y0076000D01*
X0513333Y0076000D01*
X0513333Y0066000D02*
X0518333Y0061000D01*
X0518333Y0051000D01*
X0500833Y0051000D01*
X0495833Y0056000D01*
X0500833Y0061000D02*
X0498333Y0063500D01*
X0498333Y0221000D01*
X0665833Y0221000D01*
X0670833Y0226000D01*
X0670833Y0221000D02*
X0685833Y0206000D01*
X0758333Y0201000D02*
X0558333Y0201000D01*
X0555833Y0246000D02*
X0550833Y0251000D01*
X0768333Y0138500D02*
X0768333Y0116000D01*
X0763333Y0116000D01*
X0753333Y0116000D02*
X0673333Y0116000D01*
X0668333Y0121000D01*
X0663333Y0121000D02*
X0668333Y0126000D01*
X0753333Y0126000D01*
X0758333Y0121000D02*
X0763333Y0126000D01*
X0758333Y0121000D02*
X0690833Y0121000D01*
X0695833Y0131000D02*
X0758333Y0131000D01*
X0753333Y0106000D02*
X0730833Y0106000D01*
X0758333Y0101000D02*
X0763333Y0106000D01*
X0673333Y0111000D02*
X0663333Y0121000D01*
X0513333Y0056000D02*
X0508333Y0061000D01*
X0500833Y0061000D01*
D12*
X0580833Y0091000D03*
X0585833Y0091000D03*
X0603333Y0093500D03*
X0668333Y0111000D03*
X0668333Y0121000D03*
X0690833Y0121000D03*
X0695833Y0131000D03*
X0670833Y0141000D03*
X0658333Y0136000D03*
X0630833Y0126000D03*
X0608333Y0136000D03*
X0640833Y0161000D03*
X0625833Y0171000D03*
X0635833Y0173500D03*
X0650833Y0173500D03*
X0655833Y0191000D03*
X0693333Y0211000D03*
X0670833Y0221000D03*
X0685833Y0231000D03*
X0768333Y0231000D03*
X0575833Y0176000D03*
X0553333Y0186000D03*
X0558333Y0201000D03*
X0565833Y0241000D03*
X0550833Y0251000D03*
X0700833Y0156000D03*
X0730833Y0106000D03*
X0710833Y0086000D03*
X0670833Y0066000D03*
X0655833Y0066000D03*
X0640833Y0061000D03*
X0620833Y0048500D03*
M02*
