%
M48
M72
T01C0.02400
T02C0.03200
T03C0.04000
T04C0.13000
%
T01
X519333Y38800
X525633Y35200
X549033Y19900
X565233Y19900
X576033Y14500
X592233Y19900
X612933Y16300
X621933Y19900
X643533Y36100
X657033Y37000
X674133Y22600
X703833Y40600
X727233Y31600
X738933Y49600
X737133Y58600
X729933Y65800
X737133Y79300
X693933Y68500
X679533Y72100
X658833Y82000
X654333Y91900
X639033Y109000
X635433Y112600
X639033Y116200
X648033Y116200
X656133Y118000
X603033Y109900
X598533Y92800
X602133Y71200
X547233Y80200
X535533Y76600
X524733Y76600
X524733Y82000
X535533Y87400
X535533Y93700
X524733Y71200
X554433Y9100
X629133Y141400
X623733Y145000
X634533Y153100
X627333Y160300
X597633Y154900
X590433Y147700
X534633Y150400
X568833Y179200
X584133Y181900
X594933Y178300
X608433Y180100
X568833Y190000
X595833Y216100
X661533Y235000
X708333Y266500
X720033Y264700
X585033Y270100
X669633Y184600
X654333Y179200
T02
X658333Y171000
X668333Y171000
X678333Y171000
X688333Y171000
X698333Y171000
X648333Y171000
X638333Y171000
X628333Y171000
X618333Y171000
X608333Y171000
X598333Y171000
X588333Y171000
X578333Y171000
X568333Y171000
X568333Y201000
X578333Y201000
X588333Y201000
X598333Y201000
X608333Y201000
X618333Y201000
X628333Y201000
X638333Y201000
X648333Y201000
X658333Y201000
X668333Y201000
X678333Y201000
X688333Y201000
X698333Y201000
X698333Y131000
X688333Y131000
X678333Y131000
X668333Y131000
X658333Y131000
X648333Y131000
X638333Y131000
X628333Y131000
X618333Y131000
X608333Y131000
X598333Y131000
X588333Y131000
X578333Y131000
X568333Y131000
X568333Y101000
X578333Y101000
X588333Y101000
X598333Y101000
X608333Y101000
X618333Y101000
X628333Y101000
X638333Y101000
X648333Y101000
X658333Y101000
X668333Y101000
X678333Y101000
X688333Y101000
X698333Y101000
T03
X698333Y56000
X708333Y56000
X718333Y56000
X718333Y46000
X708333Y46000
X698333Y46000
X688333Y46000
X678333Y46000
X668333Y46000
X658333Y46000
X648333Y46000
X638333Y46000
X628333Y46000
X618333Y46000
X608333Y46000
X598333Y46000
X588333Y46000
X578333Y46000
X568333Y46000
X558333Y46000
X548333Y46000
X538333Y46000
X538333Y56000
X548333Y56000
X558333Y56000
X568333Y56000
X578333Y56000
X588333Y56000
X598333Y56000
X608333Y56000
X618333Y56000
X628333Y56000
X638333Y56000
X648333Y56000
X658333Y56000
X668333Y56000
X678333Y56000
X688333Y56000
X728333Y56000
X728333Y46000
X728333Y246000
X718333Y246000
X708333Y246000
X698333Y246000
X688333Y246000
X678333Y246000
X668333Y246000
X658333Y246000
X648333Y246000
X638333Y246000
X628333Y246000
X618333Y246000
X608333Y246000
X598333Y246000
X588333Y246000
X578333Y246000
X568333Y246000
X558333Y246000
X548333Y246000
X538333Y246000
X538333Y256000
X548333Y256000
X558333Y256000
X568333Y256000
X578333Y256000
X588333Y256000
X598333Y256000
X608333Y256000
X618333Y256000
X628333Y256000
X638333Y256000
X648333Y256000
X658333Y256000
X668333Y256000
X678333Y256000
X688333Y256000
X698333Y256000
X708333Y256000
X718333Y256000
X728333Y256000
T04
X498333Y16000
X768333Y16000
X768333Y286000
X498333Y286000
M30
