G75*
%MOIN*%
%OFA0B0*%
%FSLAX25Y25*%
%IPPOS*%
%LPD*%
%AMOC8*
5,1,8,0,0,1.08239X$1,22.5*
%
%ADD10C,0.05200*%
%ADD11C,0.07400*%
%ADD12C,0.01000*%
%ADD13C,0.04000*%
D10*
X0568333Y0098400D02*
X0568333Y0103600D01*
X0578333Y0103600D02*
X0578333Y0098400D01*
X0588333Y0098400D02*
X0588333Y0103600D01*
X0598333Y0103600D02*
X0598333Y0098400D01*
X0608333Y0098400D02*
X0608333Y0103600D01*
X0618333Y0103600D02*
X0618333Y0098400D01*
X0628333Y0098400D02*
X0628333Y0103600D01*
X0638333Y0103600D02*
X0638333Y0098400D01*
X0648333Y0098400D02*
X0648333Y0103600D01*
X0658333Y0103600D02*
X0658333Y0098400D01*
X0668333Y0098400D02*
X0668333Y0103600D01*
X0678333Y0103600D02*
X0678333Y0098400D01*
X0688333Y0098400D02*
X0688333Y0103600D01*
X0698333Y0103600D02*
X0698333Y0098400D01*
X0698333Y0128400D02*
X0698333Y0133600D01*
X0688333Y0133600D02*
X0688333Y0128400D01*
X0678333Y0128400D02*
X0678333Y0133600D01*
X0668333Y0133600D02*
X0668333Y0128400D01*
X0658333Y0128400D02*
X0658333Y0133600D01*
X0648333Y0133600D02*
X0648333Y0128400D01*
X0638333Y0128400D02*
X0638333Y0133600D01*
X0628333Y0133600D02*
X0628333Y0128400D01*
X0618333Y0128400D02*
X0618333Y0133600D01*
X0608333Y0133600D02*
X0608333Y0128400D01*
X0598333Y0128400D02*
X0598333Y0133600D01*
X0588333Y0133600D02*
X0588333Y0128400D01*
X0578333Y0128400D02*
X0578333Y0133600D01*
X0568333Y0133600D02*
X0568333Y0128400D01*
X0568333Y0168400D02*
X0568333Y0173600D01*
X0578333Y0173600D02*
X0578333Y0168400D01*
X0588333Y0168400D02*
X0588333Y0173600D01*
X0598333Y0173600D02*
X0598333Y0168400D01*
X0608333Y0168400D02*
X0608333Y0173600D01*
X0618333Y0173600D02*
X0618333Y0168400D01*
X0628333Y0168400D02*
X0628333Y0173600D01*
X0638333Y0173600D02*
X0638333Y0168400D01*
X0648333Y0168400D02*
X0648333Y0173600D01*
X0658333Y0173600D02*
X0658333Y0168400D01*
X0668333Y0168400D02*
X0668333Y0173600D01*
X0678333Y0173600D02*
X0678333Y0168400D01*
X0688333Y0168400D02*
X0688333Y0173600D01*
X0698333Y0173600D02*
X0698333Y0168400D01*
X0698333Y0198400D02*
X0698333Y0203600D01*
X0688333Y0203600D02*
X0688333Y0198400D01*
X0678333Y0198400D02*
X0678333Y0203600D01*
X0668333Y0203600D02*
X0668333Y0198400D01*
X0658333Y0198400D02*
X0658333Y0203600D01*
X0648333Y0203600D02*
X0648333Y0198400D01*
X0638333Y0198400D02*
X0638333Y0203600D01*
X0628333Y0203600D02*
X0628333Y0198400D01*
X0618333Y0198400D02*
X0618333Y0203600D01*
X0608333Y0203600D02*
X0608333Y0198400D01*
X0598333Y0198400D02*
X0598333Y0203600D01*
X0588333Y0203600D02*
X0588333Y0198400D01*
X0578333Y0198400D02*
X0578333Y0203600D01*
X0568333Y0203600D02*
X0568333Y0198400D01*
D11*
X0568333Y0246000D03*
X0558333Y0246000D03*
X0548333Y0246000D03*
X0538333Y0246000D03*
X0538333Y0256000D03*
X0548333Y0256000D03*
X0558333Y0256000D03*
X0568333Y0256000D03*
X0578333Y0256000D03*
X0588333Y0256000D03*
X0598333Y0256000D03*
X0608333Y0256000D03*
X0618333Y0256000D03*
X0628333Y0256000D03*
X0638333Y0256000D03*
X0648333Y0256000D03*
X0658333Y0256000D03*
X0668333Y0256000D03*
X0678333Y0256000D03*
X0688333Y0256000D03*
X0698333Y0256000D03*
X0708333Y0256000D03*
X0718333Y0256000D03*
X0728333Y0256000D03*
X0728333Y0246000D03*
X0718333Y0246000D03*
X0708333Y0246000D03*
X0698333Y0246000D03*
X0688333Y0246000D03*
X0678333Y0246000D03*
X0668333Y0246000D03*
X0658333Y0246000D03*
X0648333Y0246000D03*
X0638333Y0246000D03*
X0628333Y0246000D03*
X0618333Y0246000D03*
X0608333Y0246000D03*
X0598333Y0246000D03*
X0588333Y0246000D03*
X0578333Y0246000D03*
X0578333Y0056000D03*
X0568333Y0056000D03*
X0558333Y0056000D03*
X0548333Y0056000D03*
X0538333Y0056000D03*
X0538333Y0046000D03*
X0548333Y0046000D03*
X0558333Y0046000D03*
X0568333Y0046000D03*
X0578333Y0046000D03*
X0588333Y0046000D03*
X0598333Y0046000D03*
X0608333Y0046000D03*
X0618333Y0046000D03*
X0618333Y0056000D03*
X0608333Y0056000D03*
X0598333Y0056000D03*
X0588333Y0056000D03*
X0628333Y0056000D03*
X0638333Y0056000D03*
X0648333Y0056000D03*
X0648333Y0046000D03*
X0638333Y0046000D03*
X0628333Y0046000D03*
X0658333Y0046000D03*
X0668333Y0046000D03*
X0678333Y0046000D03*
X0688333Y0046000D03*
X0688333Y0056000D03*
X0678333Y0056000D03*
X0668333Y0056000D03*
X0658333Y0056000D03*
X0698333Y0056000D03*
X0708333Y0056000D03*
X0718333Y0056000D03*
X0718333Y0046000D03*
X0708333Y0046000D03*
X0698333Y0046000D03*
X0728333Y0046000D03*
X0728333Y0056000D03*
D12*
X0529233Y0012700D02*
X0508533Y0033400D01*
X0508533Y0152200D01*
X0566133Y0209800D01*
X0570633Y0209800D01*
X0574233Y0206200D01*
X0574233Y0205300D01*
X0577833Y0201700D01*
X0578333Y0201000D01*
X0584133Y0203500D02*
X0584133Y0181900D01*
X0588633Y0179200D02*
X0594033Y0173800D01*
X0594033Y0166600D01*
X0605733Y0154900D01*
X0613833Y0154900D01*
X0623733Y0145000D01*
X0621933Y0141400D02*
X0629133Y0141400D01*
X0634533Y0144100D02*
X0634533Y0153100D01*
X0630933Y0151300D02*
X0630933Y0164800D01*
X0633633Y0167500D01*
X0633633Y0174700D01*
X0637233Y0178300D01*
X0649833Y0178300D01*
X0654333Y0173800D01*
X0654333Y0163900D01*
X0684033Y0134200D01*
X0684033Y0124300D01*
X0733533Y0074800D01*
X0733533Y0043300D01*
X0727233Y0037000D01*
X0687633Y0037000D01*
X0678633Y0046000D01*
X0678333Y0046000D01*
X0668733Y0046000D02*
X0668333Y0046000D01*
X0668733Y0046000D02*
X0663333Y0051400D01*
X0663333Y0058600D01*
X0644433Y0077500D01*
X0644433Y0136900D01*
X0639033Y0142300D01*
X0639033Y0170200D01*
X0638333Y0171000D01*
X0648333Y0171000D02*
X0648933Y0170200D01*
X0648933Y0150400D01*
X0668333Y0131000D01*
X0667833Y0130600D01*
X0667833Y0124300D01*
X0648933Y0105400D01*
X0648933Y0101800D01*
X0648333Y0101000D01*
X0642633Y0096400D02*
X0642633Y0136000D01*
X0634533Y0144100D01*
X0632733Y0149500D02*
X0630933Y0151300D01*
X0632733Y0149500D02*
X0632733Y0127000D01*
X0630033Y0124300D01*
X0626433Y0124300D01*
X0623733Y0127000D01*
X0623733Y0134200D01*
X0620133Y0137800D01*
X0596733Y0137800D01*
X0590433Y0131500D01*
X0588633Y0131500D01*
X0588333Y0131000D01*
X0584133Y0127900D02*
X0584133Y0141400D01*
X0590433Y0147700D01*
X0597633Y0154900D02*
X0603033Y0154900D01*
X0604833Y0153100D01*
X0610233Y0153100D01*
X0621933Y0141400D01*
X0625533Y0135100D02*
X0609333Y0151300D01*
X0576933Y0151300D01*
X0531933Y0106300D01*
X0531933Y0063100D01*
X0538233Y0056800D01*
X0538333Y0056000D01*
X0528333Y0053200D02*
X0515733Y0040600D01*
X0515733Y0037000D01*
X0521133Y0031600D01*
X0553533Y0031600D01*
X0567933Y0046000D01*
X0568333Y0046000D01*
X0573333Y0043300D02*
X0590433Y0026200D01*
X0729933Y0026200D01*
X0746133Y0042400D01*
X0746133Y0070300D01*
X0737133Y0079300D01*
X0733533Y0077500D02*
X0744333Y0066700D01*
X0744333Y0043300D01*
X0729033Y0028000D01*
X0657033Y0028000D01*
X0639033Y0046000D01*
X0638333Y0046000D01*
X0628333Y0056000D02*
X0629133Y0056800D01*
X0629133Y0082900D01*
X0642633Y0096400D01*
X0654333Y0091900D02*
X0654333Y0081100D01*
X0659733Y0075700D01*
X0709233Y0075700D01*
X0728133Y0056800D01*
X0728333Y0056000D01*
X0737133Y0056800D02*
X0742533Y0051400D01*
X0742533Y0046900D01*
X0727233Y0031600D01*
X0728133Y0035200D02*
X0738933Y0046000D01*
X0738933Y0049600D01*
X0737133Y0056800D02*
X0737133Y0058600D01*
X0729933Y0065800D02*
X0713733Y0082000D01*
X0658833Y0082000D01*
X0679533Y0072100D02*
X0695733Y0072100D01*
X0708333Y0059500D01*
X0708333Y0056000D01*
X0718233Y0046000D02*
X0718333Y0046000D01*
X0718233Y0046000D02*
X0712833Y0040600D01*
X0703833Y0040600D01*
X0723633Y0033400D02*
X0725433Y0035200D01*
X0728133Y0035200D01*
X0723633Y0033400D02*
X0655233Y0033400D01*
X0653433Y0035200D01*
X0653433Y0038800D01*
X0657933Y0043300D01*
X0657933Y0046000D01*
X0658333Y0046000D01*
X0663333Y0048700D02*
X0658833Y0053200D01*
X0658833Y0055900D01*
X0658333Y0056000D01*
X0663333Y0048700D02*
X0663333Y0043300D01*
X0657033Y0037000D01*
X0643533Y0036100D02*
X0588633Y0036100D01*
X0578733Y0046000D01*
X0578333Y0046000D01*
X0573333Y0043300D02*
X0573333Y0058600D01*
X0576033Y0061300D01*
X0589533Y0061300D01*
X0599433Y0071200D01*
X0602133Y0071200D01*
X0588633Y0063100D02*
X0565233Y0063100D01*
X0558933Y0056800D01*
X0558333Y0056000D01*
X0549033Y0056800D02*
X0548333Y0056000D01*
X0549033Y0056800D02*
X0572433Y0080200D01*
X0572433Y0103600D01*
X0584133Y0115300D01*
X0601233Y0115300D01*
X0616533Y0130600D01*
X0618333Y0130600D01*
X0618333Y0131000D01*
X0625533Y0134200D02*
X0625533Y0135100D01*
X0625533Y0134200D02*
X0628233Y0131500D01*
X0628333Y0131000D01*
X0608333Y0131000D02*
X0607533Y0130600D01*
X0594033Y0117100D01*
X0576033Y0117100D01*
X0535533Y0076600D01*
X0524733Y0076600D02*
X0512133Y0064000D01*
X0512133Y0035200D01*
X0531033Y0016300D01*
X0572433Y0016300D01*
X0576033Y0019900D01*
X0592233Y0019900D01*
X0576033Y0014500D02*
X0530133Y0014500D01*
X0510333Y0034300D01*
X0510333Y0151300D01*
X0567033Y0208000D01*
X0569733Y0208000D01*
X0572433Y0205300D01*
X0572433Y0188200D01*
X0587733Y0172900D01*
X0587733Y0171100D01*
X0588333Y0171000D01*
X0588633Y0179200D02*
X0588633Y0200800D01*
X0588333Y0201000D01*
X0592233Y0198100D02*
X0592233Y0224200D01*
X0573333Y0243100D01*
X0573333Y0258400D01*
X0585033Y0270100D01*
X0558933Y0273700D02*
X0718233Y0273700D01*
X0733533Y0258400D01*
X0733533Y0236800D01*
X0698433Y0201700D01*
X0698333Y0201000D01*
X0697533Y0200800D01*
X0691233Y0194500D01*
X0685833Y0194500D01*
X0684033Y0196300D01*
X0684033Y0203500D01*
X0679533Y0208000D01*
X0676833Y0208000D01*
X0670533Y0201700D01*
X0668733Y0201700D01*
X0668333Y0201000D01*
X0667833Y0200800D01*
X0654333Y0187300D01*
X0654333Y0179200D01*
X0658833Y0181900D02*
X0677733Y0200800D01*
X0678333Y0201000D01*
X0688333Y0201000D02*
X0688533Y0201700D01*
X0728133Y0241300D01*
X0728133Y0245800D01*
X0728333Y0246000D01*
X0728333Y0256000D02*
X0728133Y0256600D01*
X0720033Y0264700D01*
X0718233Y0256600D02*
X0708333Y0266500D01*
X0702033Y0262900D02*
X0708333Y0256600D01*
X0708333Y0256000D01*
X0702033Y0262900D02*
X0667833Y0262900D01*
X0663333Y0258400D01*
X0663333Y0243100D01*
X0661533Y0241300D01*
X0661533Y0235000D01*
X0663333Y0231400D02*
X0659733Y0231400D01*
X0633633Y0205300D01*
X0633633Y0198100D01*
X0615633Y0180100D01*
X0608433Y0180100D01*
X0594933Y0178300D02*
X0594933Y0195400D01*
X0592233Y0198100D01*
X0584133Y0203500D02*
X0558933Y0228700D01*
X0558933Y0245800D01*
X0558333Y0246000D01*
X0541833Y0256600D02*
X0539133Y0256600D01*
X0538333Y0256000D01*
X0541833Y0256600D02*
X0558933Y0273700D01*
X0595833Y0223300D02*
X0618333Y0245800D01*
X0618333Y0246000D01*
X0595833Y0223300D02*
X0595833Y0216100D01*
X0568333Y0201000D02*
X0567933Y0200800D01*
X0567933Y0194500D01*
X0538233Y0164800D01*
X0538233Y0115300D01*
X0528333Y0105400D01*
X0528333Y0053200D01*
X0524733Y0052300D02*
X0513933Y0041500D01*
X0513933Y0036100D01*
X0526533Y0023500D01*
X0673233Y0023500D01*
X0674133Y0022600D01*
X0621933Y0019900D02*
X0611133Y0009100D01*
X0554433Y0009100D01*
X0549033Y0019900D02*
X0565233Y0019900D01*
X0572433Y0012700D02*
X0574233Y0010900D01*
X0607533Y0010900D01*
X0612933Y0016300D01*
X0572433Y0012700D02*
X0529233Y0012700D01*
X0525633Y0035200D02*
X0545433Y0035200D01*
X0556233Y0046000D01*
X0558333Y0046000D01*
X0548333Y0046000D02*
X0545433Y0046000D01*
X0538233Y0038800D01*
X0519333Y0038800D01*
X0524733Y0052300D02*
X0524733Y0071200D01*
X0524733Y0082000D02*
X0524733Y0104500D01*
X0534633Y0114400D01*
X0534633Y0150400D01*
X0566133Y0137800D02*
X0535533Y0107200D01*
X0535533Y0093700D01*
X0535533Y0087400D02*
X0567033Y0118900D01*
X0585933Y0118900D01*
X0597633Y0130600D01*
X0598333Y0131000D01*
X0584133Y0127900D02*
X0580533Y0124300D01*
X0575133Y0124300D01*
X0568833Y0130600D01*
X0568333Y0131000D01*
X0569733Y0137800D02*
X0576033Y0131500D01*
X0577833Y0131500D01*
X0578333Y0131000D01*
X0569733Y0137800D02*
X0566133Y0137800D01*
X0592233Y0113500D02*
X0619233Y0113500D01*
X0621933Y0116200D01*
X0639033Y0116200D01*
X0635433Y0112600D02*
X0621033Y0112600D01*
X0610233Y0101800D01*
X0608433Y0101800D01*
X0608333Y0101000D01*
X0603033Y0097300D02*
X0603033Y0109900D01*
X0592233Y0113500D02*
X0580533Y0101800D01*
X0578733Y0101800D01*
X0578333Y0101000D01*
X0568333Y0101000D02*
X0567933Y0100900D01*
X0547233Y0080200D01*
X0588633Y0063100D02*
X0626433Y0100900D01*
X0628233Y0100900D01*
X0628333Y0101000D01*
X0627333Y0109000D02*
X0620133Y0101800D01*
X0618333Y0101800D01*
X0618333Y0101000D01*
X0603033Y0097300D02*
X0598533Y0092800D01*
X0627333Y0109000D02*
X0639033Y0109000D01*
X0648033Y0116200D02*
X0654333Y0116200D01*
X0656133Y0118000D01*
X0658833Y0111700D02*
X0677733Y0130600D01*
X0678333Y0131000D01*
X0658833Y0111700D02*
X0658833Y0101800D01*
X0658333Y0101000D01*
X0693033Y0068500D02*
X0693933Y0068500D01*
X0693033Y0068500D02*
X0681333Y0056800D01*
X0678633Y0056800D01*
X0678333Y0056000D01*
X0733533Y0077500D02*
X0733533Y0104500D01*
X0674133Y0163900D01*
X0674133Y0173800D01*
X0669633Y0178300D01*
X0669633Y0184600D01*
X0658833Y0181900D02*
X0658833Y0171100D01*
X0658333Y0171000D01*
X0627333Y0163000D02*
X0623733Y0166600D01*
X0623733Y0177400D01*
X0644433Y0198100D01*
X0644433Y0205300D01*
X0679533Y0240400D01*
X0682233Y0240400D01*
X0687633Y0245800D01*
X0688333Y0246000D01*
X0678333Y0246000D02*
X0677733Y0245800D01*
X0663333Y0231400D01*
X0678333Y0256000D02*
X0678633Y0256600D01*
X0683133Y0261100D01*
X0690333Y0261100D01*
X0694833Y0256600D01*
X0697533Y0256600D01*
X0698333Y0256000D01*
X0718233Y0256600D02*
X0718333Y0256000D01*
X0568833Y0190000D02*
X0568833Y0179200D01*
X0627333Y0163000D02*
X0627333Y0160300D01*
D13*
X0627333Y0160300D03*
X0634533Y0153100D03*
X0623733Y0145000D03*
X0629133Y0141400D03*
X0597633Y0154900D03*
X0590433Y0147700D03*
X0534633Y0150400D03*
X0568833Y0179200D03*
X0584133Y0181900D03*
X0594933Y0178300D03*
X0608433Y0180100D03*
X0568833Y0190000D03*
X0595833Y0216100D03*
X0661533Y0235000D03*
X0708333Y0266500D03*
X0720033Y0264700D03*
X0585033Y0270100D03*
X0669633Y0184600D03*
X0654333Y0179200D03*
X0656133Y0118000D03*
X0648033Y0116200D03*
X0639033Y0116200D03*
X0635433Y0112600D03*
X0639033Y0109000D03*
X0654333Y0091900D03*
X0658833Y0082000D03*
X0679533Y0072100D03*
X0693933Y0068500D03*
X0729933Y0065800D03*
X0737133Y0058600D03*
X0738933Y0049600D03*
X0727233Y0031600D03*
X0703833Y0040600D03*
X0674133Y0022600D03*
X0657033Y0037000D03*
X0643533Y0036100D03*
X0621933Y0019900D03*
X0612933Y0016300D03*
X0592233Y0019900D03*
X0576033Y0014500D03*
X0565233Y0019900D03*
X0549033Y0019900D03*
X0554433Y0009100D03*
X0525633Y0035200D03*
X0519333Y0038800D03*
X0524733Y0071200D03*
X0524733Y0076600D03*
X0524733Y0082000D03*
X0535533Y0076600D03*
X0547233Y0080200D03*
X0535533Y0087400D03*
X0535533Y0093700D03*
X0598533Y0092800D03*
X0603033Y0109900D03*
X0602133Y0071200D03*
X0737133Y0079300D03*
M02*
