G75*
%MOIN*%
%OFA0B0*%
%FSLAX25Y25*%
%IPPOS*%
%LPD*%
%AMOC8*
5,1,8,0,0,1.08239X$1,22.5*
%
%ADD10C,0.00000*%
%ADD11C,0.05200*%
%ADD12C,0.07400*%
%ADD13C,0.01000*%
%ADD14C,0.04000*%
D10*
X0483333Y0001000D02*
X0483333Y0300961D01*
X0782034Y0300961D01*
X0782034Y0001000D01*
X0483333Y0001000D01*
X0491833Y0016000D02*
X0491835Y0016161D01*
X0491841Y0016321D01*
X0491851Y0016482D01*
X0491865Y0016642D01*
X0491883Y0016802D01*
X0491904Y0016961D01*
X0491930Y0017120D01*
X0491960Y0017278D01*
X0491993Y0017435D01*
X0492031Y0017592D01*
X0492072Y0017747D01*
X0492117Y0017901D01*
X0492166Y0018054D01*
X0492219Y0018206D01*
X0492275Y0018357D01*
X0492336Y0018506D01*
X0492399Y0018654D01*
X0492467Y0018800D01*
X0492538Y0018944D01*
X0492612Y0019086D01*
X0492690Y0019227D01*
X0492772Y0019365D01*
X0492857Y0019502D01*
X0492945Y0019636D01*
X0493037Y0019768D01*
X0493132Y0019898D01*
X0493230Y0020026D01*
X0493331Y0020151D01*
X0493435Y0020273D01*
X0493542Y0020393D01*
X0493652Y0020510D01*
X0493765Y0020625D01*
X0493881Y0020736D01*
X0494000Y0020845D01*
X0494121Y0020950D01*
X0494245Y0021053D01*
X0494371Y0021153D01*
X0494499Y0021249D01*
X0494630Y0021342D01*
X0494764Y0021432D01*
X0494899Y0021519D01*
X0495037Y0021602D01*
X0495176Y0021682D01*
X0495318Y0021758D01*
X0495461Y0021831D01*
X0495606Y0021900D01*
X0495753Y0021966D01*
X0495901Y0022028D01*
X0496051Y0022086D01*
X0496202Y0022141D01*
X0496355Y0022192D01*
X0496509Y0022239D01*
X0496664Y0022282D01*
X0496820Y0022321D01*
X0496976Y0022357D01*
X0497134Y0022388D01*
X0497292Y0022416D01*
X0497451Y0022440D01*
X0497611Y0022460D01*
X0497771Y0022476D01*
X0497931Y0022488D01*
X0498092Y0022496D01*
X0498253Y0022500D01*
X0498413Y0022500D01*
X0498574Y0022496D01*
X0498735Y0022488D01*
X0498895Y0022476D01*
X0499055Y0022460D01*
X0499215Y0022440D01*
X0499374Y0022416D01*
X0499532Y0022388D01*
X0499690Y0022357D01*
X0499846Y0022321D01*
X0500002Y0022282D01*
X0500157Y0022239D01*
X0500311Y0022192D01*
X0500464Y0022141D01*
X0500615Y0022086D01*
X0500765Y0022028D01*
X0500913Y0021966D01*
X0501060Y0021900D01*
X0501205Y0021831D01*
X0501348Y0021758D01*
X0501490Y0021682D01*
X0501629Y0021602D01*
X0501767Y0021519D01*
X0501902Y0021432D01*
X0502036Y0021342D01*
X0502167Y0021249D01*
X0502295Y0021153D01*
X0502421Y0021053D01*
X0502545Y0020950D01*
X0502666Y0020845D01*
X0502785Y0020736D01*
X0502901Y0020625D01*
X0503014Y0020510D01*
X0503124Y0020393D01*
X0503231Y0020273D01*
X0503335Y0020151D01*
X0503436Y0020026D01*
X0503534Y0019898D01*
X0503629Y0019768D01*
X0503721Y0019636D01*
X0503809Y0019502D01*
X0503894Y0019365D01*
X0503976Y0019227D01*
X0504054Y0019086D01*
X0504128Y0018944D01*
X0504199Y0018800D01*
X0504267Y0018654D01*
X0504330Y0018506D01*
X0504391Y0018357D01*
X0504447Y0018206D01*
X0504500Y0018054D01*
X0504549Y0017901D01*
X0504594Y0017747D01*
X0504635Y0017592D01*
X0504673Y0017435D01*
X0504706Y0017278D01*
X0504736Y0017120D01*
X0504762Y0016961D01*
X0504783Y0016802D01*
X0504801Y0016642D01*
X0504815Y0016482D01*
X0504825Y0016321D01*
X0504831Y0016161D01*
X0504833Y0016000D01*
X0504831Y0015839D01*
X0504825Y0015679D01*
X0504815Y0015518D01*
X0504801Y0015358D01*
X0504783Y0015198D01*
X0504762Y0015039D01*
X0504736Y0014880D01*
X0504706Y0014722D01*
X0504673Y0014565D01*
X0504635Y0014408D01*
X0504594Y0014253D01*
X0504549Y0014099D01*
X0504500Y0013946D01*
X0504447Y0013794D01*
X0504391Y0013643D01*
X0504330Y0013494D01*
X0504267Y0013346D01*
X0504199Y0013200D01*
X0504128Y0013056D01*
X0504054Y0012914D01*
X0503976Y0012773D01*
X0503894Y0012635D01*
X0503809Y0012498D01*
X0503721Y0012364D01*
X0503629Y0012232D01*
X0503534Y0012102D01*
X0503436Y0011974D01*
X0503335Y0011849D01*
X0503231Y0011727D01*
X0503124Y0011607D01*
X0503014Y0011490D01*
X0502901Y0011375D01*
X0502785Y0011264D01*
X0502666Y0011155D01*
X0502545Y0011050D01*
X0502421Y0010947D01*
X0502295Y0010847D01*
X0502167Y0010751D01*
X0502036Y0010658D01*
X0501902Y0010568D01*
X0501767Y0010481D01*
X0501629Y0010398D01*
X0501490Y0010318D01*
X0501348Y0010242D01*
X0501205Y0010169D01*
X0501060Y0010100D01*
X0500913Y0010034D01*
X0500765Y0009972D01*
X0500615Y0009914D01*
X0500464Y0009859D01*
X0500311Y0009808D01*
X0500157Y0009761D01*
X0500002Y0009718D01*
X0499846Y0009679D01*
X0499690Y0009643D01*
X0499532Y0009612D01*
X0499374Y0009584D01*
X0499215Y0009560D01*
X0499055Y0009540D01*
X0498895Y0009524D01*
X0498735Y0009512D01*
X0498574Y0009504D01*
X0498413Y0009500D01*
X0498253Y0009500D01*
X0498092Y0009504D01*
X0497931Y0009512D01*
X0497771Y0009524D01*
X0497611Y0009540D01*
X0497451Y0009560D01*
X0497292Y0009584D01*
X0497134Y0009612D01*
X0496976Y0009643D01*
X0496820Y0009679D01*
X0496664Y0009718D01*
X0496509Y0009761D01*
X0496355Y0009808D01*
X0496202Y0009859D01*
X0496051Y0009914D01*
X0495901Y0009972D01*
X0495753Y0010034D01*
X0495606Y0010100D01*
X0495461Y0010169D01*
X0495318Y0010242D01*
X0495176Y0010318D01*
X0495037Y0010398D01*
X0494899Y0010481D01*
X0494764Y0010568D01*
X0494630Y0010658D01*
X0494499Y0010751D01*
X0494371Y0010847D01*
X0494245Y0010947D01*
X0494121Y0011050D01*
X0494000Y0011155D01*
X0493881Y0011264D01*
X0493765Y0011375D01*
X0493652Y0011490D01*
X0493542Y0011607D01*
X0493435Y0011727D01*
X0493331Y0011849D01*
X0493230Y0011974D01*
X0493132Y0012102D01*
X0493037Y0012232D01*
X0492945Y0012364D01*
X0492857Y0012498D01*
X0492772Y0012635D01*
X0492690Y0012773D01*
X0492612Y0012914D01*
X0492538Y0013056D01*
X0492467Y0013200D01*
X0492399Y0013346D01*
X0492336Y0013494D01*
X0492275Y0013643D01*
X0492219Y0013794D01*
X0492166Y0013946D01*
X0492117Y0014099D01*
X0492072Y0014253D01*
X0492031Y0014408D01*
X0491993Y0014565D01*
X0491960Y0014722D01*
X0491930Y0014880D01*
X0491904Y0015039D01*
X0491883Y0015198D01*
X0491865Y0015358D01*
X0491851Y0015518D01*
X0491841Y0015679D01*
X0491835Y0015839D01*
X0491833Y0016000D01*
X0761833Y0016000D02*
X0761835Y0016161D01*
X0761841Y0016321D01*
X0761851Y0016482D01*
X0761865Y0016642D01*
X0761883Y0016802D01*
X0761904Y0016961D01*
X0761930Y0017120D01*
X0761960Y0017278D01*
X0761993Y0017435D01*
X0762031Y0017592D01*
X0762072Y0017747D01*
X0762117Y0017901D01*
X0762166Y0018054D01*
X0762219Y0018206D01*
X0762275Y0018357D01*
X0762336Y0018506D01*
X0762399Y0018654D01*
X0762467Y0018800D01*
X0762538Y0018944D01*
X0762612Y0019086D01*
X0762690Y0019227D01*
X0762772Y0019365D01*
X0762857Y0019502D01*
X0762945Y0019636D01*
X0763037Y0019768D01*
X0763132Y0019898D01*
X0763230Y0020026D01*
X0763331Y0020151D01*
X0763435Y0020273D01*
X0763542Y0020393D01*
X0763652Y0020510D01*
X0763765Y0020625D01*
X0763881Y0020736D01*
X0764000Y0020845D01*
X0764121Y0020950D01*
X0764245Y0021053D01*
X0764371Y0021153D01*
X0764499Y0021249D01*
X0764630Y0021342D01*
X0764764Y0021432D01*
X0764899Y0021519D01*
X0765037Y0021602D01*
X0765176Y0021682D01*
X0765318Y0021758D01*
X0765461Y0021831D01*
X0765606Y0021900D01*
X0765753Y0021966D01*
X0765901Y0022028D01*
X0766051Y0022086D01*
X0766202Y0022141D01*
X0766355Y0022192D01*
X0766509Y0022239D01*
X0766664Y0022282D01*
X0766820Y0022321D01*
X0766976Y0022357D01*
X0767134Y0022388D01*
X0767292Y0022416D01*
X0767451Y0022440D01*
X0767611Y0022460D01*
X0767771Y0022476D01*
X0767931Y0022488D01*
X0768092Y0022496D01*
X0768253Y0022500D01*
X0768413Y0022500D01*
X0768574Y0022496D01*
X0768735Y0022488D01*
X0768895Y0022476D01*
X0769055Y0022460D01*
X0769215Y0022440D01*
X0769374Y0022416D01*
X0769532Y0022388D01*
X0769690Y0022357D01*
X0769846Y0022321D01*
X0770002Y0022282D01*
X0770157Y0022239D01*
X0770311Y0022192D01*
X0770464Y0022141D01*
X0770615Y0022086D01*
X0770765Y0022028D01*
X0770913Y0021966D01*
X0771060Y0021900D01*
X0771205Y0021831D01*
X0771348Y0021758D01*
X0771490Y0021682D01*
X0771629Y0021602D01*
X0771767Y0021519D01*
X0771902Y0021432D01*
X0772036Y0021342D01*
X0772167Y0021249D01*
X0772295Y0021153D01*
X0772421Y0021053D01*
X0772545Y0020950D01*
X0772666Y0020845D01*
X0772785Y0020736D01*
X0772901Y0020625D01*
X0773014Y0020510D01*
X0773124Y0020393D01*
X0773231Y0020273D01*
X0773335Y0020151D01*
X0773436Y0020026D01*
X0773534Y0019898D01*
X0773629Y0019768D01*
X0773721Y0019636D01*
X0773809Y0019502D01*
X0773894Y0019365D01*
X0773976Y0019227D01*
X0774054Y0019086D01*
X0774128Y0018944D01*
X0774199Y0018800D01*
X0774267Y0018654D01*
X0774330Y0018506D01*
X0774391Y0018357D01*
X0774447Y0018206D01*
X0774500Y0018054D01*
X0774549Y0017901D01*
X0774594Y0017747D01*
X0774635Y0017592D01*
X0774673Y0017435D01*
X0774706Y0017278D01*
X0774736Y0017120D01*
X0774762Y0016961D01*
X0774783Y0016802D01*
X0774801Y0016642D01*
X0774815Y0016482D01*
X0774825Y0016321D01*
X0774831Y0016161D01*
X0774833Y0016000D01*
X0774831Y0015839D01*
X0774825Y0015679D01*
X0774815Y0015518D01*
X0774801Y0015358D01*
X0774783Y0015198D01*
X0774762Y0015039D01*
X0774736Y0014880D01*
X0774706Y0014722D01*
X0774673Y0014565D01*
X0774635Y0014408D01*
X0774594Y0014253D01*
X0774549Y0014099D01*
X0774500Y0013946D01*
X0774447Y0013794D01*
X0774391Y0013643D01*
X0774330Y0013494D01*
X0774267Y0013346D01*
X0774199Y0013200D01*
X0774128Y0013056D01*
X0774054Y0012914D01*
X0773976Y0012773D01*
X0773894Y0012635D01*
X0773809Y0012498D01*
X0773721Y0012364D01*
X0773629Y0012232D01*
X0773534Y0012102D01*
X0773436Y0011974D01*
X0773335Y0011849D01*
X0773231Y0011727D01*
X0773124Y0011607D01*
X0773014Y0011490D01*
X0772901Y0011375D01*
X0772785Y0011264D01*
X0772666Y0011155D01*
X0772545Y0011050D01*
X0772421Y0010947D01*
X0772295Y0010847D01*
X0772167Y0010751D01*
X0772036Y0010658D01*
X0771902Y0010568D01*
X0771767Y0010481D01*
X0771629Y0010398D01*
X0771490Y0010318D01*
X0771348Y0010242D01*
X0771205Y0010169D01*
X0771060Y0010100D01*
X0770913Y0010034D01*
X0770765Y0009972D01*
X0770615Y0009914D01*
X0770464Y0009859D01*
X0770311Y0009808D01*
X0770157Y0009761D01*
X0770002Y0009718D01*
X0769846Y0009679D01*
X0769690Y0009643D01*
X0769532Y0009612D01*
X0769374Y0009584D01*
X0769215Y0009560D01*
X0769055Y0009540D01*
X0768895Y0009524D01*
X0768735Y0009512D01*
X0768574Y0009504D01*
X0768413Y0009500D01*
X0768253Y0009500D01*
X0768092Y0009504D01*
X0767931Y0009512D01*
X0767771Y0009524D01*
X0767611Y0009540D01*
X0767451Y0009560D01*
X0767292Y0009584D01*
X0767134Y0009612D01*
X0766976Y0009643D01*
X0766820Y0009679D01*
X0766664Y0009718D01*
X0766509Y0009761D01*
X0766355Y0009808D01*
X0766202Y0009859D01*
X0766051Y0009914D01*
X0765901Y0009972D01*
X0765753Y0010034D01*
X0765606Y0010100D01*
X0765461Y0010169D01*
X0765318Y0010242D01*
X0765176Y0010318D01*
X0765037Y0010398D01*
X0764899Y0010481D01*
X0764764Y0010568D01*
X0764630Y0010658D01*
X0764499Y0010751D01*
X0764371Y0010847D01*
X0764245Y0010947D01*
X0764121Y0011050D01*
X0764000Y0011155D01*
X0763881Y0011264D01*
X0763765Y0011375D01*
X0763652Y0011490D01*
X0763542Y0011607D01*
X0763435Y0011727D01*
X0763331Y0011849D01*
X0763230Y0011974D01*
X0763132Y0012102D01*
X0763037Y0012232D01*
X0762945Y0012364D01*
X0762857Y0012498D01*
X0762772Y0012635D01*
X0762690Y0012773D01*
X0762612Y0012914D01*
X0762538Y0013056D01*
X0762467Y0013200D01*
X0762399Y0013346D01*
X0762336Y0013494D01*
X0762275Y0013643D01*
X0762219Y0013794D01*
X0762166Y0013946D01*
X0762117Y0014099D01*
X0762072Y0014253D01*
X0762031Y0014408D01*
X0761993Y0014565D01*
X0761960Y0014722D01*
X0761930Y0014880D01*
X0761904Y0015039D01*
X0761883Y0015198D01*
X0761865Y0015358D01*
X0761851Y0015518D01*
X0761841Y0015679D01*
X0761835Y0015839D01*
X0761833Y0016000D01*
X0761833Y0286000D02*
X0761835Y0286161D01*
X0761841Y0286321D01*
X0761851Y0286482D01*
X0761865Y0286642D01*
X0761883Y0286802D01*
X0761904Y0286961D01*
X0761930Y0287120D01*
X0761960Y0287278D01*
X0761993Y0287435D01*
X0762031Y0287592D01*
X0762072Y0287747D01*
X0762117Y0287901D01*
X0762166Y0288054D01*
X0762219Y0288206D01*
X0762275Y0288357D01*
X0762336Y0288506D01*
X0762399Y0288654D01*
X0762467Y0288800D01*
X0762538Y0288944D01*
X0762612Y0289086D01*
X0762690Y0289227D01*
X0762772Y0289365D01*
X0762857Y0289502D01*
X0762945Y0289636D01*
X0763037Y0289768D01*
X0763132Y0289898D01*
X0763230Y0290026D01*
X0763331Y0290151D01*
X0763435Y0290273D01*
X0763542Y0290393D01*
X0763652Y0290510D01*
X0763765Y0290625D01*
X0763881Y0290736D01*
X0764000Y0290845D01*
X0764121Y0290950D01*
X0764245Y0291053D01*
X0764371Y0291153D01*
X0764499Y0291249D01*
X0764630Y0291342D01*
X0764764Y0291432D01*
X0764899Y0291519D01*
X0765037Y0291602D01*
X0765176Y0291682D01*
X0765318Y0291758D01*
X0765461Y0291831D01*
X0765606Y0291900D01*
X0765753Y0291966D01*
X0765901Y0292028D01*
X0766051Y0292086D01*
X0766202Y0292141D01*
X0766355Y0292192D01*
X0766509Y0292239D01*
X0766664Y0292282D01*
X0766820Y0292321D01*
X0766976Y0292357D01*
X0767134Y0292388D01*
X0767292Y0292416D01*
X0767451Y0292440D01*
X0767611Y0292460D01*
X0767771Y0292476D01*
X0767931Y0292488D01*
X0768092Y0292496D01*
X0768253Y0292500D01*
X0768413Y0292500D01*
X0768574Y0292496D01*
X0768735Y0292488D01*
X0768895Y0292476D01*
X0769055Y0292460D01*
X0769215Y0292440D01*
X0769374Y0292416D01*
X0769532Y0292388D01*
X0769690Y0292357D01*
X0769846Y0292321D01*
X0770002Y0292282D01*
X0770157Y0292239D01*
X0770311Y0292192D01*
X0770464Y0292141D01*
X0770615Y0292086D01*
X0770765Y0292028D01*
X0770913Y0291966D01*
X0771060Y0291900D01*
X0771205Y0291831D01*
X0771348Y0291758D01*
X0771490Y0291682D01*
X0771629Y0291602D01*
X0771767Y0291519D01*
X0771902Y0291432D01*
X0772036Y0291342D01*
X0772167Y0291249D01*
X0772295Y0291153D01*
X0772421Y0291053D01*
X0772545Y0290950D01*
X0772666Y0290845D01*
X0772785Y0290736D01*
X0772901Y0290625D01*
X0773014Y0290510D01*
X0773124Y0290393D01*
X0773231Y0290273D01*
X0773335Y0290151D01*
X0773436Y0290026D01*
X0773534Y0289898D01*
X0773629Y0289768D01*
X0773721Y0289636D01*
X0773809Y0289502D01*
X0773894Y0289365D01*
X0773976Y0289227D01*
X0774054Y0289086D01*
X0774128Y0288944D01*
X0774199Y0288800D01*
X0774267Y0288654D01*
X0774330Y0288506D01*
X0774391Y0288357D01*
X0774447Y0288206D01*
X0774500Y0288054D01*
X0774549Y0287901D01*
X0774594Y0287747D01*
X0774635Y0287592D01*
X0774673Y0287435D01*
X0774706Y0287278D01*
X0774736Y0287120D01*
X0774762Y0286961D01*
X0774783Y0286802D01*
X0774801Y0286642D01*
X0774815Y0286482D01*
X0774825Y0286321D01*
X0774831Y0286161D01*
X0774833Y0286000D01*
X0774831Y0285839D01*
X0774825Y0285679D01*
X0774815Y0285518D01*
X0774801Y0285358D01*
X0774783Y0285198D01*
X0774762Y0285039D01*
X0774736Y0284880D01*
X0774706Y0284722D01*
X0774673Y0284565D01*
X0774635Y0284408D01*
X0774594Y0284253D01*
X0774549Y0284099D01*
X0774500Y0283946D01*
X0774447Y0283794D01*
X0774391Y0283643D01*
X0774330Y0283494D01*
X0774267Y0283346D01*
X0774199Y0283200D01*
X0774128Y0283056D01*
X0774054Y0282914D01*
X0773976Y0282773D01*
X0773894Y0282635D01*
X0773809Y0282498D01*
X0773721Y0282364D01*
X0773629Y0282232D01*
X0773534Y0282102D01*
X0773436Y0281974D01*
X0773335Y0281849D01*
X0773231Y0281727D01*
X0773124Y0281607D01*
X0773014Y0281490D01*
X0772901Y0281375D01*
X0772785Y0281264D01*
X0772666Y0281155D01*
X0772545Y0281050D01*
X0772421Y0280947D01*
X0772295Y0280847D01*
X0772167Y0280751D01*
X0772036Y0280658D01*
X0771902Y0280568D01*
X0771767Y0280481D01*
X0771629Y0280398D01*
X0771490Y0280318D01*
X0771348Y0280242D01*
X0771205Y0280169D01*
X0771060Y0280100D01*
X0770913Y0280034D01*
X0770765Y0279972D01*
X0770615Y0279914D01*
X0770464Y0279859D01*
X0770311Y0279808D01*
X0770157Y0279761D01*
X0770002Y0279718D01*
X0769846Y0279679D01*
X0769690Y0279643D01*
X0769532Y0279612D01*
X0769374Y0279584D01*
X0769215Y0279560D01*
X0769055Y0279540D01*
X0768895Y0279524D01*
X0768735Y0279512D01*
X0768574Y0279504D01*
X0768413Y0279500D01*
X0768253Y0279500D01*
X0768092Y0279504D01*
X0767931Y0279512D01*
X0767771Y0279524D01*
X0767611Y0279540D01*
X0767451Y0279560D01*
X0767292Y0279584D01*
X0767134Y0279612D01*
X0766976Y0279643D01*
X0766820Y0279679D01*
X0766664Y0279718D01*
X0766509Y0279761D01*
X0766355Y0279808D01*
X0766202Y0279859D01*
X0766051Y0279914D01*
X0765901Y0279972D01*
X0765753Y0280034D01*
X0765606Y0280100D01*
X0765461Y0280169D01*
X0765318Y0280242D01*
X0765176Y0280318D01*
X0765037Y0280398D01*
X0764899Y0280481D01*
X0764764Y0280568D01*
X0764630Y0280658D01*
X0764499Y0280751D01*
X0764371Y0280847D01*
X0764245Y0280947D01*
X0764121Y0281050D01*
X0764000Y0281155D01*
X0763881Y0281264D01*
X0763765Y0281375D01*
X0763652Y0281490D01*
X0763542Y0281607D01*
X0763435Y0281727D01*
X0763331Y0281849D01*
X0763230Y0281974D01*
X0763132Y0282102D01*
X0763037Y0282232D01*
X0762945Y0282364D01*
X0762857Y0282498D01*
X0762772Y0282635D01*
X0762690Y0282773D01*
X0762612Y0282914D01*
X0762538Y0283056D01*
X0762467Y0283200D01*
X0762399Y0283346D01*
X0762336Y0283494D01*
X0762275Y0283643D01*
X0762219Y0283794D01*
X0762166Y0283946D01*
X0762117Y0284099D01*
X0762072Y0284253D01*
X0762031Y0284408D01*
X0761993Y0284565D01*
X0761960Y0284722D01*
X0761930Y0284880D01*
X0761904Y0285039D01*
X0761883Y0285198D01*
X0761865Y0285358D01*
X0761851Y0285518D01*
X0761841Y0285679D01*
X0761835Y0285839D01*
X0761833Y0286000D01*
X0491833Y0286000D02*
X0491835Y0286161D01*
X0491841Y0286321D01*
X0491851Y0286482D01*
X0491865Y0286642D01*
X0491883Y0286802D01*
X0491904Y0286961D01*
X0491930Y0287120D01*
X0491960Y0287278D01*
X0491993Y0287435D01*
X0492031Y0287592D01*
X0492072Y0287747D01*
X0492117Y0287901D01*
X0492166Y0288054D01*
X0492219Y0288206D01*
X0492275Y0288357D01*
X0492336Y0288506D01*
X0492399Y0288654D01*
X0492467Y0288800D01*
X0492538Y0288944D01*
X0492612Y0289086D01*
X0492690Y0289227D01*
X0492772Y0289365D01*
X0492857Y0289502D01*
X0492945Y0289636D01*
X0493037Y0289768D01*
X0493132Y0289898D01*
X0493230Y0290026D01*
X0493331Y0290151D01*
X0493435Y0290273D01*
X0493542Y0290393D01*
X0493652Y0290510D01*
X0493765Y0290625D01*
X0493881Y0290736D01*
X0494000Y0290845D01*
X0494121Y0290950D01*
X0494245Y0291053D01*
X0494371Y0291153D01*
X0494499Y0291249D01*
X0494630Y0291342D01*
X0494764Y0291432D01*
X0494899Y0291519D01*
X0495037Y0291602D01*
X0495176Y0291682D01*
X0495318Y0291758D01*
X0495461Y0291831D01*
X0495606Y0291900D01*
X0495753Y0291966D01*
X0495901Y0292028D01*
X0496051Y0292086D01*
X0496202Y0292141D01*
X0496355Y0292192D01*
X0496509Y0292239D01*
X0496664Y0292282D01*
X0496820Y0292321D01*
X0496976Y0292357D01*
X0497134Y0292388D01*
X0497292Y0292416D01*
X0497451Y0292440D01*
X0497611Y0292460D01*
X0497771Y0292476D01*
X0497931Y0292488D01*
X0498092Y0292496D01*
X0498253Y0292500D01*
X0498413Y0292500D01*
X0498574Y0292496D01*
X0498735Y0292488D01*
X0498895Y0292476D01*
X0499055Y0292460D01*
X0499215Y0292440D01*
X0499374Y0292416D01*
X0499532Y0292388D01*
X0499690Y0292357D01*
X0499846Y0292321D01*
X0500002Y0292282D01*
X0500157Y0292239D01*
X0500311Y0292192D01*
X0500464Y0292141D01*
X0500615Y0292086D01*
X0500765Y0292028D01*
X0500913Y0291966D01*
X0501060Y0291900D01*
X0501205Y0291831D01*
X0501348Y0291758D01*
X0501490Y0291682D01*
X0501629Y0291602D01*
X0501767Y0291519D01*
X0501902Y0291432D01*
X0502036Y0291342D01*
X0502167Y0291249D01*
X0502295Y0291153D01*
X0502421Y0291053D01*
X0502545Y0290950D01*
X0502666Y0290845D01*
X0502785Y0290736D01*
X0502901Y0290625D01*
X0503014Y0290510D01*
X0503124Y0290393D01*
X0503231Y0290273D01*
X0503335Y0290151D01*
X0503436Y0290026D01*
X0503534Y0289898D01*
X0503629Y0289768D01*
X0503721Y0289636D01*
X0503809Y0289502D01*
X0503894Y0289365D01*
X0503976Y0289227D01*
X0504054Y0289086D01*
X0504128Y0288944D01*
X0504199Y0288800D01*
X0504267Y0288654D01*
X0504330Y0288506D01*
X0504391Y0288357D01*
X0504447Y0288206D01*
X0504500Y0288054D01*
X0504549Y0287901D01*
X0504594Y0287747D01*
X0504635Y0287592D01*
X0504673Y0287435D01*
X0504706Y0287278D01*
X0504736Y0287120D01*
X0504762Y0286961D01*
X0504783Y0286802D01*
X0504801Y0286642D01*
X0504815Y0286482D01*
X0504825Y0286321D01*
X0504831Y0286161D01*
X0504833Y0286000D01*
X0504831Y0285839D01*
X0504825Y0285679D01*
X0504815Y0285518D01*
X0504801Y0285358D01*
X0504783Y0285198D01*
X0504762Y0285039D01*
X0504736Y0284880D01*
X0504706Y0284722D01*
X0504673Y0284565D01*
X0504635Y0284408D01*
X0504594Y0284253D01*
X0504549Y0284099D01*
X0504500Y0283946D01*
X0504447Y0283794D01*
X0504391Y0283643D01*
X0504330Y0283494D01*
X0504267Y0283346D01*
X0504199Y0283200D01*
X0504128Y0283056D01*
X0504054Y0282914D01*
X0503976Y0282773D01*
X0503894Y0282635D01*
X0503809Y0282498D01*
X0503721Y0282364D01*
X0503629Y0282232D01*
X0503534Y0282102D01*
X0503436Y0281974D01*
X0503335Y0281849D01*
X0503231Y0281727D01*
X0503124Y0281607D01*
X0503014Y0281490D01*
X0502901Y0281375D01*
X0502785Y0281264D01*
X0502666Y0281155D01*
X0502545Y0281050D01*
X0502421Y0280947D01*
X0502295Y0280847D01*
X0502167Y0280751D01*
X0502036Y0280658D01*
X0501902Y0280568D01*
X0501767Y0280481D01*
X0501629Y0280398D01*
X0501490Y0280318D01*
X0501348Y0280242D01*
X0501205Y0280169D01*
X0501060Y0280100D01*
X0500913Y0280034D01*
X0500765Y0279972D01*
X0500615Y0279914D01*
X0500464Y0279859D01*
X0500311Y0279808D01*
X0500157Y0279761D01*
X0500002Y0279718D01*
X0499846Y0279679D01*
X0499690Y0279643D01*
X0499532Y0279612D01*
X0499374Y0279584D01*
X0499215Y0279560D01*
X0499055Y0279540D01*
X0498895Y0279524D01*
X0498735Y0279512D01*
X0498574Y0279504D01*
X0498413Y0279500D01*
X0498253Y0279500D01*
X0498092Y0279504D01*
X0497931Y0279512D01*
X0497771Y0279524D01*
X0497611Y0279540D01*
X0497451Y0279560D01*
X0497292Y0279584D01*
X0497134Y0279612D01*
X0496976Y0279643D01*
X0496820Y0279679D01*
X0496664Y0279718D01*
X0496509Y0279761D01*
X0496355Y0279808D01*
X0496202Y0279859D01*
X0496051Y0279914D01*
X0495901Y0279972D01*
X0495753Y0280034D01*
X0495606Y0280100D01*
X0495461Y0280169D01*
X0495318Y0280242D01*
X0495176Y0280318D01*
X0495037Y0280398D01*
X0494899Y0280481D01*
X0494764Y0280568D01*
X0494630Y0280658D01*
X0494499Y0280751D01*
X0494371Y0280847D01*
X0494245Y0280947D01*
X0494121Y0281050D01*
X0494000Y0281155D01*
X0493881Y0281264D01*
X0493765Y0281375D01*
X0493652Y0281490D01*
X0493542Y0281607D01*
X0493435Y0281727D01*
X0493331Y0281849D01*
X0493230Y0281974D01*
X0493132Y0282102D01*
X0493037Y0282232D01*
X0492945Y0282364D01*
X0492857Y0282498D01*
X0492772Y0282635D01*
X0492690Y0282773D01*
X0492612Y0282914D01*
X0492538Y0283056D01*
X0492467Y0283200D01*
X0492399Y0283346D01*
X0492336Y0283494D01*
X0492275Y0283643D01*
X0492219Y0283794D01*
X0492166Y0283946D01*
X0492117Y0284099D01*
X0492072Y0284253D01*
X0492031Y0284408D01*
X0491993Y0284565D01*
X0491960Y0284722D01*
X0491930Y0284880D01*
X0491904Y0285039D01*
X0491883Y0285198D01*
X0491865Y0285358D01*
X0491851Y0285518D01*
X0491841Y0285679D01*
X0491835Y0285839D01*
X0491833Y0286000D01*
D11*
X0568333Y0203600D02*
X0568333Y0198400D01*
X0578333Y0198400D02*
X0578333Y0203600D01*
X0588333Y0203600D02*
X0588333Y0198400D01*
X0598333Y0198400D02*
X0598333Y0203600D01*
X0608333Y0203600D02*
X0608333Y0198400D01*
X0618333Y0198400D02*
X0618333Y0203600D01*
X0628333Y0203600D02*
X0628333Y0198400D01*
X0638333Y0198400D02*
X0638333Y0203600D01*
X0648333Y0203600D02*
X0648333Y0198400D01*
X0658333Y0198400D02*
X0658333Y0203600D01*
X0668333Y0203600D02*
X0668333Y0198400D01*
X0678333Y0198400D02*
X0678333Y0203600D01*
X0688333Y0203600D02*
X0688333Y0198400D01*
X0698333Y0198400D02*
X0698333Y0203600D01*
X0698333Y0173600D02*
X0698333Y0168400D01*
X0688333Y0168400D02*
X0688333Y0173600D01*
X0678333Y0173600D02*
X0678333Y0168400D01*
X0668333Y0168400D02*
X0668333Y0173600D01*
X0658333Y0173600D02*
X0658333Y0168400D01*
X0648333Y0168400D02*
X0648333Y0173600D01*
X0638333Y0173600D02*
X0638333Y0168400D01*
X0628333Y0168400D02*
X0628333Y0173600D01*
X0618333Y0173600D02*
X0618333Y0168400D01*
X0608333Y0168400D02*
X0608333Y0173600D01*
X0598333Y0173600D02*
X0598333Y0168400D01*
X0588333Y0168400D02*
X0588333Y0173600D01*
X0578333Y0173600D02*
X0578333Y0168400D01*
X0568333Y0168400D02*
X0568333Y0173600D01*
X0568333Y0133600D02*
X0568333Y0128400D01*
X0578333Y0128400D02*
X0578333Y0133600D01*
X0588333Y0133600D02*
X0588333Y0128400D01*
X0598333Y0128400D02*
X0598333Y0133600D01*
X0608333Y0133600D02*
X0608333Y0128400D01*
X0618333Y0128400D02*
X0618333Y0133600D01*
X0628333Y0133600D02*
X0628333Y0128400D01*
X0638333Y0128400D02*
X0638333Y0133600D01*
X0648333Y0133600D02*
X0648333Y0128400D01*
X0658333Y0128400D02*
X0658333Y0133600D01*
X0668333Y0133600D02*
X0668333Y0128400D01*
X0678333Y0128400D02*
X0678333Y0133600D01*
X0688333Y0133600D02*
X0688333Y0128400D01*
X0698333Y0128400D02*
X0698333Y0133600D01*
X0698333Y0103600D02*
X0698333Y0098400D01*
X0688333Y0098400D02*
X0688333Y0103600D01*
X0678333Y0103600D02*
X0678333Y0098400D01*
X0668333Y0098400D02*
X0668333Y0103600D01*
X0658333Y0103600D02*
X0658333Y0098400D01*
X0648333Y0098400D02*
X0648333Y0103600D01*
X0638333Y0103600D02*
X0638333Y0098400D01*
X0628333Y0098400D02*
X0628333Y0103600D01*
X0618333Y0103600D02*
X0618333Y0098400D01*
X0608333Y0098400D02*
X0608333Y0103600D01*
X0598333Y0103600D02*
X0598333Y0098400D01*
X0588333Y0098400D02*
X0588333Y0103600D01*
X0578333Y0103600D02*
X0578333Y0098400D01*
X0568333Y0098400D02*
X0568333Y0103600D01*
D12*
X0568333Y0056000D03*
X0558333Y0056000D03*
X0548333Y0056000D03*
X0538333Y0056000D03*
X0538333Y0046000D03*
X0548333Y0046000D03*
X0558333Y0046000D03*
X0568333Y0046000D03*
X0578333Y0046000D03*
X0578333Y0056000D03*
X0588333Y0056000D03*
X0598333Y0056000D03*
X0608333Y0056000D03*
X0618333Y0056000D03*
X0618333Y0046000D03*
X0608333Y0046000D03*
X0598333Y0046000D03*
X0588333Y0046000D03*
X0628333Y0046000D03*
X0638333Y0046000D03*
X0648333Y0046000D03*
X0648333Y0056000D03*
X0638333Y0056000D03*
X0628333Y0056000D03*
X0658333Y0056000D03*
X0668333Y0056000D03*
X0678333Y0056000D03*
X0688333Y0056000D03*
X0688333Y0046000D03*
X0678333Y0046000D03*
X0668333Y0046000D03*
X0658333Y0046000D03*
X0698333Y0046000D03*
X0708333Y0046000D03*
X0718333Y0046000D03*
X0718333Y0056000D03*
X0708333Y0056000D03*
X0698333Y0056000D03*
X0728333Y0056000D03*
X0728333Y0046000D03*
X0728333Y0246000D03*
X0718333Y0246000D03*
X0708333Y0246000D03*
X0698333Y0246000D03*
X0688333Y0246000D03*
X0678333Y0246000D03*
X0668333Y0246000D03*
X0658333Y0246000D03*
X0648333Y0246000D03*
X0638333Y0246000D03*
X0628333Y0246000D03*
X0618333Y0246000D03*
X0608333Y0246000D03*
X0598333Y0246000D03*
X0588333Y0246000D03*
X0578333Y0246000D03*
X0568333Y0246000D03*
X0558333Y0246000D03*
X0548333Y0246000D03*
X0538333Y0246000D03*
X0538333Y0256000D03*
X0548333Y0256000D03*
X0558333Y0256000D03*
X0568333Y0256000D03*
X0578333Y0256000D03*
X0588333Y0256000D03*
X0598333Y0256000D03*
X0608333Y0256000D03*
X0618333Y0256000D03*
X0628333Y0256000D03*
X0638333Y0256000D03*
X0648333Y0256000D03*
X0658333Y0256000D03*
X0668333Y0256000D03*
X0678333Y0256000D03*
X0688333Y0256000D03*
X0698333Y0256000D03*
X0708333Y0256000D03*
X0718333Y0256000D03*
X0728333Y0256000D03*
D13*
X0730833Y0261100D02*
X0693033Y0261100D01*
X0688533Y0256600D01*
X0688333Y0256000D01*
X0678333Y0256000D02*
X0673233Y0261100D01*
X0666033Y0261100D01*
X0663333Y0258400D01*
X0660633Y0261100D01*
X0633633Y0261100D01*
X0629133Y0256600D01*
X0628333Y0256000D01*
X0628233Y0256600D01*
X0625533Y0256600D01*
X0621033Y0261100D01*
X0603033Y0261100D01*
X0598533Y0256600D01*
X0598333Y0256000D01*
X0597633Y0256600D01*
X0594933Y0256600D01*
X0590433Y0261100D01*
X0576033Y0261100D01*
X0573333Y0258400D01*
X0570633Y0261100D01*
X0563433Y0261100D01*
X0558333Y0256000D01*
X0573333Y0253900D02*
X0577833Y0249400D01*
X0577833Y0246700D01*
X0578333Y0246000D01*
X0573333Y0253900D02*
X0573333Y0258400D01*
X0585033Y0270100D02*
X0724533Y0270100D01*
X0744333Y0250300D01*
X0744333Y0049600D01*
X0735333Y0040600D01*
X0713733Y0040600D01*
X0708333Y0046000D01*
X0698333Y0046000D02*
X0697533Y0046000D01*
X0674133Y0022600D01*
X0687633Y0046000D02*
X0650733Y0009100D01*
X0565233Y0009100D01*
X0519333Y0055000D01*
X0519333Y0082000D01*
X0531033Y0093700D01*
X0535533Y0093700D01*
X0535533Y0087400D02*
X0524733Y0076600D01*
X0521133Y0078400D02*
X0524733Y0082000D01*
X0521133Y0078400D02*
X0521133Y0055900D01*
X0538233Y0038800D01*
X0590433Y0038800D01*
X0597633Y0046000D01*
X0598333Y0046000D01*
X0607533Y0046000D02*
X0608333Y0046000D01*
X0607533Y0046000D02*
X0576033Y0014500D01*
X0574233Y0010900D02*
X0593133Y0010900D01*
X0628233Y0046000D01*
X0628333Y0046000D01*
X0618333Y0046000D02*
X0592233Y0019900D01*
X0574233Y0010900D02*
X0565233Y0019900D01*
X0549033Y0019900D02*
X0517533Y0051400D01*
X0517533Y0144100D01*
X0567033Y0193600D01*
X0590433Y0193600D01*
X0597633Y0200800D01*
X0598333Y0201000D01*
X0608333Y0201000D02*
X0608433Y0200800D01*
X0610233Y0200800D01*
X0616533Y0194500D01*
X0620133Y0194500D01*
X0622833Y0197200D01*
X0622833Y0204400D01*
X0626433Y0208000D01*
X0649833Y0208000D01*
X0654333Y0203500D01*
X0654333Y0196300D01*
X0666033Y0184600D01*
X0669633Y0184600D01*
X0666033Y0182800D02*
X0677733Y0171100D01*
X0678333Y0171000D01*
X0688333Y0171000D02*
X0688533Y0171100D01*
X0664233Y0195400D01*
X0664233Y0203500D01*
X0648033Y0219700D01*
X0576933Y0219700D01*
X0550833Y0245800D01*
X0549033Y0245800D01*
X0548333Y0246000D01*
X0540933Y0245800D02*
X0570633Y0216100D01*
X0595833Y0216100D01*
X0610233Y0208000D02*
X0567033Y0208000D01*
X0515733Y0156700D01*
X0515733Y0050500D01*
X0545433Y0020800D01*
X0545433Y0018100D01*
X0554433Y0009100D01*
X0525633Y0035200D02*
X0525633Y0037900D01*
X0513933Y0049600D01*
X0513933Y0239500D01*
X0537333Y0262900D01*
X0718233Y0262900D01*
X0720033Y0264700D01*
X0708333Y0266500D02*
X0538233Y0266500D01*
X0512133Y0240400D01*
X0512133Y0048700D01*
X0519333Y0041500D01*
X0519333Y0038800D01*
X0532833Y0051400D02*
X0538233Y0046000D01*
X0538333Y0046000D01*
X0532833Y0051400D02*
X0532833Y0057700D01*
X0535533Y0060400D01*
X0535533Y0076600D01*
X0533733Y0080200D02*
X0524733Y0071200D01*
X0533733Y0080200D02*
X0547233Y0080200D01*
X0564333Y0073000D02*
X0570633Y0066700D01*
X0570633Y0061300D01*
X0573333Y0058600D01*
X0573333Y0043300D01*
X0576033Y0040600D01*
X0582333Y0040600D01*
X0587733Y0046000D01*
X0588333Y0046000D01*
X0588333Y0056000D02*
X0588633Y0056800D01*
X0592233Y0060400D01*
X0592233Y0136000D01*
X0578733Y0149500D01*
X0578733Y0170200D01*
X0578333Y0171000D01*
X0568333Y0171000D02*
X0567933Y0170200D01*
X0567933Y0139600D01*
X0564333Y0136000D01*
X0564333Y0073000D01*
X0567933Y0066700D02*
X0567933Y0056800D01*
X0568333Y0056000D01*
X0572433Y0062200D02*
X0577833Y0056800D01*
X0578333Y0056000D01*
X0572433Y0062200D02*
X0572433Y0175600D01*
X0568833Y0179200D01*
X0569733Y0182800D02*
X0567033Y0182800D01*
X0534633Y0150400D01*
X0531033Y0152200D02*
X0531033Y0103600D01*
X0567933Y0066700D01*
X0598533Y0056800D02*
X0598333Y0056000D01*
X0598533Y0056800D02*
X0598533Y0092800D01*
X0602133Y0094600D02*
X0602133Y0071200D01*
X0603933Y0074800D02*
X0607533Y0071200D01*
X0607533Y0056800D01*
X0608333Y0056000D01*
X0613833Y0061300D02*
X0618333Y0056800D01*
X0618333Y0056000D01*
X0613833Y0061300D02*
X0613833Y0134200D01*
X0608433Y0139600D01*
X0608433Y0170200D01*
X0608333Y0171000D01*
X0603033Y0174700D02*
X0608433Y0180100D01*
X0606633Y0183700D02*
X0604833Y0181900D01*
X0584133Y0181900D01*
X0576933Y0178300D02*
X0594933Y0178300D01*
X0598333Y0171000D02*
X0598533Y0170200D01*
X0598533Y0159400D01*
X0601233Y0156700D01*
X0601233Y0142300D01*
X0594033Y0135100D01*
X0594033Y0113500D01*
X0603933Y0103600D01*
X0603933Y0074800D01*
X0623733Y0071200D02*
X0638133Y0056800D01*
X0638333Y0056000D01*
X0648033Y0056800D02*
X0648333Y0056000D01*
X0648033Y0056800D02*
X0633633Y0071200D01*
X0633633Y0104500D01*
X0631833Y0106300D01*
X0631833Y0114400D01*
X0632733Y0115300D01*
X0632733Y0135100D01*
X0630033Y0137800D01*
X0627333Y0137800D01*
X0623733Y0141400D01*
X0623733Y0145000D01*
X0629133Y0141400D02*
X0646233Y0141400D01*
X0654333Y0133300D01*
X0654333Y0125200D01*
X0674133Y0105400D01*
X0674133Y0082900D01*
X0687633Y0069400D01*
X0687633Y0056800D01*
X0688333Y0056000D01*
X0697533Y0056800D02*
X0698333Y0056000D01*
X0697533Y0056800D02*
X0697533Y0059500D01*
X0690333Y0066700D01*
X0690333Y0084700D01*
X0704733Y0099100D01*
X0704733Y0172900D01*
X0683133Y0194500D01*
X0675933Y0194500D01*
X0672333Y0198100D01*
X0672333Y0224200D01*
X0661533Y0235000D01*
X0658833Y0243100D02*
X0677733Y0224200D01*
X0677733Y0201700D01*
X0678333Y0201000D01*
X0678633Y0201700D01*
X0687633Y0201700D01*
X0688333Y0201000D01*
X0666033Y0182800D02*
X0651633Y0182800D01*
X0644433Y0175600D01*
X0644433Y0166600D01*
X0641733Y0163900D01*
X0626433Y0163900D01*
X0623733Y0166600D01*
X0623733Y0173800D01*
X0613833Y0183700D01*
X0606633Y0183700D01*
X0614733Y0185500D02*
X0572433Y0185500D01*
X0569733Y0182800D01*
X0568833Y0184600D02*
X0563433Y0184600D01*
X0531033Y0152200D01*
X0574233Y0175600D02*
X0574233Y0126100D01*
X0587733Y0112600D01*
X0587733Y0101800D01*
X0588333Y0101000D01*
X0598333Y0101000D02*
X0598533Y0100900D01*
X0598533Y0098200D01*
X0602133Y0094600D01*
X0603033Y0109900D02*
X0603033Y0174700D01*
X0618333Y0171000D02*
X0618333Y0139600D01*
X0623733Y0134200D01*
X0623733Y0071200D01*
X0639033Y0082900D02*
X0663333Y0058600D01*
X0663333Y0043300D01*
X0660633Y0040600D01*
X0648033Y0040600D01*
X0643533Y0036100D01*
X0657033Y0037000D02*
X0636333Y0016300D01*
X0612933Y0016300D01*
X0621933Y0019900D02*
X0648033Y0046000D01*
X0648333Y0046000D01*
X0662433Y0062200D02*
X0667833Y0056800D01*
X0668333Y0056000D01*
X0662433Y0062200D02*
X0662433Y0105400D01*
X0652533Y0115300D01*
X0652533Y0117100D01*
X0639033Y0130600D01*
X0638333Y0131000D01*
X0662433Y0127900D02*
X0662433Y0148600D01*
X0644433Y0166600D01*
X0648333Y0171000D02*
X0648933Y0171100D01*
X0648933Y0173800D01*
X0654333Y0179200D01*
X0658333Y0171000D02*
X0658833Y0170200D01*
X0677733Y0151300D01*
X0677733Y0131500D01*
X0678333Y0131000D01*
X0678633Y0131500D01*
X0687633Y0131500D01*
X0688333Y0131000D01*
X0688533Y0131500D01*
X0697533Y0131500D01*
X0698333Y0131000D01*
X0702933Y0127000D02*
X0702933Y0155800D01*
X0688533Y0170200D01*
X0688333Y0171000D01*
X0634533Y0153100D02*
X0627333Y0160300D01*
X0628333Y0171000D02*
X0625533Y0173800D01*
X0625533Y0174700D01*
X0614733Y0185500D01*
X0618333Y0190000D02*
X0568833Y0190000D01*
X0571533Y0187300D02*
X0568833Y0184600D01*
X0571533Y0187300D02*
X0622833Y0187300D01*
X0636333Y0200800D01*
X0638133Y0200800D01*
X0638333Y0201000D01*
X0628333Y0201000D02*
X0628233Y0200800D01*
X0624633Y0197200D01*
X0624633Y0196300D01*
X0618333Y0190000D01*
X0618333Y0201000D02*
X0618333Y0201700D01*
X0616533Y0201700D01*
X0610233Y0208000D01*
X0576933Y0178300D02*
X0574233Y0175600D01*
X0597633Y0154900D02*
X0590433Y0147700D01*
X0639033Y0116200D02*
X0648033Y0116200D01*
X0645333Y0112600D02*
X0635433Y0112600D01*
X0639033Y0109000D02*
X0644433Y0103600D01*
X0644433Y0096400D01*
X0658833Y0082000D01*
X0664233Y0087400D02*
X0679533Y0072100D01*
X0693933Y0068500D02*
X0693933Y0085600D01*
X0706533Y0098200D01*
X0706533Y0237700D01*
X0698433Y0245800D01*
X0698333Y0246000D01*
X0708333Y0246000D02*
X0708333Y0113500D01*
X0740733Y0081100D01*
X0740733Y0056800D01*
X0729933Y0046000D01*
X0728333Y0046000D01*
X0738933Y0049600D02*
X0738933Y0052300D01*
X0742533Y0055900D01*
X0742533Y0249400D01*
X0730833Y0261100D01*
X0663333Y0258400D02*
X0663333Y0253900D01*
X0658833Y0249400D01*
X0658833Y0246700D01*
X0658333Y0246000D01*
X0658833Y0245800D01*
X0658833Y0243100D01*
X0540933Y0245800D02*
X0539133Y0245800D01*
X0538333Y0246000D01*
X0662433Y0127900D02*
X0677733Y0112600D01*
X0677733Y0101800D01*
X0678333Y0101000D01*
X0688333Y0101000D02*
X0688533Y0101800D01*
X0688533Y0112600D01*
X0702933Y0127000D01*
X0664233Y0106300D02*
X0664233Y0087400D01*
X0654333Y0091900D02*
X0654333Y0103600D01*
X0645333Y0112600D01*
X0656133Y0114400D02*
X0664233Y0106300D01*
X0656133Y0114400D02*
X0656133Y0118000D01*
X0639033Y0100900D02*
X0638333Y0101000D01*
X0639033Y0100900D02*
X0639033Y0082900D01*
X0687633Y0046000D02*
X0688333Y0046000D01*
X0703833Y0040600D02*
X0712833Y0031600D01*
X0727233Y0031600D01*
X0718333Y0056000D02*
X0719133Y0056800D01*
X0719133Y0061300D01*
X0737133Y0079300D01*
X0729933Y0065800D02*
X0737133Y0058600D01*
D14*
X0737133Y0058600D03*
X0738933Y0049600D03*
X0729933Y0065800D03*
X0737133Y0079300D03*
X0693933Y0068500D03*
X0679533Y0072100D03*
X0658833Y0082000D03*
X0654333Y0091900D03*
X0639033Y0109000D03*
X0635433Y0112600D03*
X0639033Y0116200D03*
X0648033Y0116200D03*
X0656133Y0118000D03*
X0603033Y0109900D03*
X0598533Y0092800D03*
X0602133Y0071200D03*
X0547233Y0080200D03*
X0535533Y0076600D03*
X0524733Y0076600D03*
X0524733Y0082000D03*
X0535533Y0087400D03*
X0535533Y0093700D03*
X0524733Y0071200D03*
X0519333Y0038800D03*
X0525633Y0035200D03*
X0549033Y0019900D03*
X0565233Y0019900D03*
X0576033Y0014500D03*
X0592233Y0019900D03*
X0612933Y0016300D03*
X0621933Y0019900D03*
X0643533Y0036100D03*
X0657033Y0037000D03*
X0674133Y0022600D03*
X0703833Y0040600D03*
X0727233Y0031600D03*
X0554433Y0009100D03*
X0629133Y0141400D03*
X0623733Y0145000D03*
X0634533Y0153100D03*
X0627333Y0160300D03*
X0597633Y0154900D03*
X0590433Y0147700D03*
X0534633Y0150400D03*
X0568833Y0179200D03*
X0584133Y0181900D03*
X0594933Y0178300D03*
X0608433Y0180100D03*
X0568833Y0190000D03*
X0595833Y0216100D03*
X0661533Y0235000D03*
X0708333Y0266500D03*
X0720033Y0264700D03*
X0585033Y0270100D03*
X0669633Y0184600D03*
X0654333Y0179200D03*
M02*
